<svg width="284" height="1400" viewBox="0 0 284 1400" class="keymap" xmlns="http://www.w3.org/2000/svg" xmlns:xlink="http://www.w3.org/1999/xlink">
<style>/* inherit to force styles through use tags */
svg path {
    fill: inherit;
}

/* font and background color specifications */
svg.keymap {
    font-family: SFMono-Regular,Consolas,Liberation Mono,Menlo,monospace;
    font-size: 14px;
    font-kerning: normal;
    text-rendering: optimizeLegibility;
    fill: #24292e;
}

/* default key styling */
rect.key {
    fill: #f6f8fa;
}

rect.key, rect.combo {
    stroke: #c9cccf;
    stroke-width: 1;
}

/* default key side styling, only used is draw_key_sides is set */
rect.side {
    filter: brightness(90%);
}

/* color accent for combo boxes */
rect.combo, rect.combo-separate {
    fill: #cdf;
}

/* color accent for held keys */
rect.held, rect.combo.held {
    fill: #fdd;
}

/* color accent for ghost (optional) keys */
rect.ghost, rect.combo.ghost {
    stroke-dasharray: 4, 4;
    stroke-width: 2;
}

text {
    text-anchor: middle;
    dominant-baseline: middle;
}

/* styling for layer labels */
text.label {
    font-weight: bold;
    text-anchor: start;
    stroke: white;
    stroke-width: 4;
    paint-order: stroke;
}

/* styling for optional footer */
text.footer {
    text-anchor: end;
    dominant-baseline: auto;
    stroke: white;
    stroke-width: 4;
    paint-order: stroke;
}

/* styling for combo tap, and key hold/shifted label text */
text.combo, text.hold, text.shifted {
    font-size: 11px;
}

text.hold {
    text-anchor: middle;
    dominant-baseline: auto;
}

text.shifted {
    text-anchor: middle;
    dominant-baseline: hanging;
}

/* styling for hold/shifted label text in combo box */
text.combo.hold, text.combo.shifted {
    font-size: 8px;
}

/* lighter symbol for transparent keys */
text.trans {
    fill: #7b7e81;
}

/* styling for combo dendrons */
path.combo {
    stroke-width: 1;
    stroke: gray;
    fill: none;
}

/* Start Tabler Icons Cleanup */
/* cannot use height/width with glyphs */
.icon-tabler > path {
    fill: inherit;
    stroke: inherit;
    stroke-width: 2;
}
/* hide tabler's default box */
.icon-tabler > path[stroke="none"][fill="none"] {
    visibility: hidden;
}
/* End Tabler Icons Cleanup */
</style>
<g transform="translate(30, 0)" class="layer-default">
<text x="0" y="28" class="label">default:</text>
<g transform="translate(0, 56)">
<g transform="translate(28, 28)" class="key keypos-0">
<rect rx="6" ry="6" x="-26" y="-26" width="52" height="52" class="key"/>
<text x="0" y="0" class="key tap">PREV</text>
</g>
<g transform="translate(84, 28)" class="key keypos-1">
<rect rx="6" ry="6" x="-26" y="-26" width="52" height="52" class="key"/>
<text x="0" y="0" class="key tap">
<tspan x="0" dy="-0.6em">PLAY</tspan><tspan x="0" dy="1.2em">PAUSE</tspan>
</text>
</g>
<g transform="translate(140, 28)" class="key keypos-2">
<rect rx="6" ry="6" x="-26" y="-26" width="52" height="52" class="key"/>
<text x="0" y="0" class="key tap">NEXT</text>
</g>
<g transform="translate(196, 28)" class="key keypos-3">
<rect rx="6" ry="6" x="-26" y="-26" width="52" height="52" class="key"/>
<text x="0" y="0" class="key tap">MUTE</text>
</g>
<g transform="translate(28, 84)" class="key keypos-4">
<rect rx="6" ry="6" x="-26" y="-26" width="52" height="52" class="key"/>
<text x="0" y="0" class="key tap">SLL</text>
<text x="0" y="24" class="key hold">sticky</text>
</g>
<g transform="translate(84, 84)" class="key keypos-5">
<rect rx="6" ry="6" x="-26" y="-26" width="52" height="52" class="key"/>
<text x="0" y="0" class="key tap">HOME</text>
</g>
<g transform="translate(140, 84)" class="key keypos-6">
<rect rx="6" ry="6" x="-26" y="-26" width="52" height="52" class="key"/>
<text x="0" y="0" class="key tap"><tspan style="font-size: 70%">&amp;name_this</tspan></text>
</g>
<g transform="translate(28, 140)" class="key keypos-7">
<rect rx="6" ry="6" x="-26" y="-26" width="52" height="52" class="key"/>
<text x="0" y="0" class="key tap">LEFT</text>
</g>
<g transform="translate(84, 140)" class="key keypos-8">
<rect rx="6" ry="6" x="-26" y="-26" width="52" height="52" class="key"/>
<text x="0" y="0" class="key tap">END</text>
</g>
<g transform="translate(140, 140)" class="key keypos-9">
<rect rx="6" ry="6" x="-26" y="-26" width="52" height="52" class="key"/>
<text x="0" y="0" class="key tap">RIGHT</text>
</g>
<g transform="translate(196, 140)" class="key keypos-10">
<rect rx="6" ry="6" x="-26" y="-26" width="52" height="52" class="key"/>
<text x="0" y="0" class="key tap">SLEEP</text>
</g>
<g class="combo combopos-0">
<path d="M84,84 l-37,0" class="combo"/>
<path d="M84,84 l37,0" class="combo"/>
<rect rx="6" ry="6" x="70" y="71" width="28" height="26" class="combo"/>
<text x="84" y="84" class="combo tap"><tspan style="font-size: 64%">&amp;bootloader</tspan></text>
</g>
<g class="combo combopos-1">
<rect rx="6" ry="6" x="42" y="15" width="28" height="26" class="combo"/>
<text x="56" y="28" class="combo tap">fn</text>
<text x="56" y="39" class="combo hold">toggle</text>
</g>
<g class="combo combopos-2">
<rect rx="6" ry="6" x="98" y="15" width="28" height="26" class="combo"/>
<text x="112" y="28" class="combo tap">aggnews</text>
<text x="112" y="39" class="combo hold">toggle</text>
</g>
<g class="combo combopos-3">
<path d="M84,140 l-37,0" class="combo"/>
<path d="M84,140 l37,0" class="combo"/>
<rect rx="6" ry="6" x="70" y="127" width="28" height="26" class="combo"/>
<text x="84" y="140" class="combo tap">NUM</text>
<text x="84" y="151" class="combo hold">toggle</text>
</g>
<g class="combo combopos-4">
<rect rx="6" ry="6" x="126" y="43" width="28" height="26" class="combo"/>
<text x="140" y="56" class="combo tap">SLL</text>
<text x="140" y="67" class="combo hold">toggle</text>
</g>
</g>
</g>
<g transform="translate(30, 224)" class="layer-fn">
<text x="0" y="28" class="label">fn:</text>
<g transform="translate(0, 56)">
<g transform="translate(28, 28)" class="key keypos-0">
<rect rx="6" ry="6" x="-26" y="-26" width="52" height="52" class="key"/>
<text x="0" y="0" class="key tap">
<tspan x="0" dy="-0.6em">BT</tspan><tspan x="0" dy="1.2em">CLR</tspan>
</text>
</g>
<g transform="translate(84, 28)" class="key keypos-1">
<rect rx="6" ry="6" x="-26" y="-26" width="52" height="52" class="key"/>
<text x="0" y="0" class="key tap">
<tspan x="0" dy="-0.6em">BT</tspan><tspan x="0" dy="1.2em">NXT</tspan>
</text>
</g>
<g transform="translate(140, 28)" class="key keypos-2">
<rect rx="6" ry="6" x="-26" y="-26" width="52" height="52" class="key"/>
<text x="0" y="0" class="key tap">
<tspan x="0" dy="-0.6em">BT</tspan><tspan x="0" dy="1.2em">PRV</tspan>
</text>
</g>
<g transform="translate(196, 28)" class="key trans keypos-3">
<rect rx="6" ry="6" x="-26" y="-26" width="52" height="52" class="key trans"/>
<text x="0" y="0" class="key trans tap">▽</text>
</g>
<g transform="translate(28, 84)" class="key keypos-4">
<rect rx="6" ry="6" x="-26" y="-26" width="52" height="52" class="key"/>
<text x="0" y="0" class="key tap">BT</text>
<text x="0" y="24" class="key hold">0</text>
</g>
<g transform="translate(84, 84)" class="key keypos-5">
<rect rx="6" ry="6" x="-26" y="-26" width="52" height="52" class="key"/>
<text x="0" y="0" class="key tap">
<tspan x="0" dy="-0.6em">OUT</tspan><tspan x="0" dy="1.2em">BLE</tspan>
</text>
</g>
<g transform="translate(140, 84)" class="key keypos-6">
<rect rx="6" ry="6" x="-26" y="-26" width="52" height="52" class="key"/>
<text x="0" y="0" class="key tap">
<tspan x="0" dy="-0.6em">OUT</tspan><tspan x="0" dy="1.2em">USB</tspan>
</text>
</g>
<g transform="translate(28, 140)" class="key keypos-7">
<rect rx="6" ry="6" x="-26" y="-26" width="52" height="52" class="key"/>
<text x="0" y="0" class="key tap">BT</text>
<text x="0" y="24" class="key hold">1</text>
</g>
<g transform="translate(84, 140)" class="key trans keypos-8">
<rect rx="6" ry="6" x="-26" y="-26" width="52" height="52" class="key trans"/>
<text x="0" y="0" class="key trans tap">▽</text>
</g>
<g transform="translate(140, 140)" class="key trans keypos-9">
<rect rx="6" ry="6" x="-26" y="-26" width="52" height="52" class="key trans"/>
<text x="0" y="0" class="key trans tap">▽</text>
</g>
<g transform="translate(196, 140)" class="key trans keypos-10">
<rect rx="6" ry="6" x="-26" y="-26" width="52" height="52" class="key trans"/>
<text x="0" y="0" class="key trans tap">▽</text>
</g>
<g class="combo combopos-0">
<path d="M84,84 l-37,0" class="combo"/>
<path d="M84,84 l37,0" class="combo"/>
<rect rx="6" ry="6" x="70" y="71" width="28" height="26" class="combo"/>
<text x="84" y="84" class="combo tap"><tspan style="font-size: 64%">&amp;bootloader</tspan></text>
</g>
<g class="combo combopos-1">
<rect rx="6" ry="6" x="42" y="15" width="28" height="26" class="combo"/>
<text x="56" y="28" class="combo tap">fn</text>
<text x="56" y="39" class="combo hold">toggle</text>
</g>
<g class="combo combopos-2">
<rect rx="6" ry="6" x="98" y="15" width="28" height="26" class="combo"/>
<text x="112" y="28" class="combo tap">aggnews</text>
<text x="112" y="39" class="combo hold">toggle</text>
</g>
<g class="combo combopos-3">
<path d="M84,140 l-37,0" class="combo"/>
<path d="M84,140 l37,0" class="combo"/>
<rect rx="6" ry="6" x="70" y="127" width="28" height="26" class="combo"/>
<text x="84" y="140" class="combo tap">NUM</text>
<text x="84" y="151" class="combo hold">toggle</text>
</g>
<g class="combo combopos-4">
<rect rx="6" ry="6" x="126" y="43" width="28" height="26" class="combo"/>
<text x="140" y="56" class="combo tap">SLL</text>
<text x="140" y="67" class="combo hold">toggle</text>
</g>
</g>
</g>
<g transform="translate(30, 448)" class="layer-aggnews">
<text x="0" y="28" class="label">aggnews:</text>
<g transform="translate(0, 56)">
<g transform="translate(28, 28)" class="key keypos-0">
<rect rx="6" ry="6" x="-26" y="-26" width="52" height="52" class="key"/>
<text x="0" y="0" class="key tap">LEFT</text>
<text x="0" y="24" class="key hold"><tspan style="font-size: 78%">Ctl+ LEFT</tspan></text>
</g>
<g transform="translate(84, 28)" class="key keypos-1">
<rect rx="6" ry="6" x="-26" y="-26" width="52" height="52" class="key"/>
<text x="0" y="0" class="key tap">P</text>
<text x="0" y="24" class="key hold"><tspan style="font-size: 70%">PLAY PAUSE</tspan></text>
</g>
<g transform="translate(140, 28)" class="key keypos-2">
<rect rx="6" ry="6" x="-26" y="-26" width="52" height="52" class="key"/>
<text x="0" y="0" class="key tap">SLL5</text>
<text x="0" y="24" class="key hold">sticky</text>
</g>
<g transform="translate(196, 28)" class="key trans keypos-3">
<rect rx="6" ry="6" x="-26" y="-26" width="52" height="52" class="key trans"/>
<text x="0" y="0" class="key trans tap">▽</text>
</g>
<g transform="translate(28, 84)" class="key keypos-4">
<rect rx="6" ry="6" x="-26" y="-26" width="52" height="52" class="key"/>
<text x="0" y="0" class="key tap">
<tspan x="0" dy="-1.2em">Ctl+</tspan><tspan x="0" dy="1.2em">.</tspan>
</text>
<text x="0" y="24" class="key hold">Ctl+ ,</text>
</g>
<g transform="translate(84, 84)" class="key keypos-5">
<rect rx="6" ry="6" x="-26" y="-26" width="52" height="52" class="key"/>
<text x="0" y="0" class="key tap">UP</text>
<text x="0" y="24" class="key hold">Ctl+ UP</text>
</g>
<g transform="translate(140, 84)" class="key keypos-6">
<rect rx="6" ry="6" x="-26" y="-26" width="52" height="52" class="key"/>
<text x="0" y="0" class="key tap">&amp;ctrlw</text>
</g>
<g transform="translate(28, 140)" class="key keypos-7">
<rect rx="6" ry="6" x="-26" y="-26" width="52" height="52" class="key"/>
<text x="0" y="0" class="key tap">&amp;shifq</text>
</g>
<g transform="translate(84, 140)" class="key keypos-8">
<rect rx="6" ry="6" x="-26" y="-26" width="52" height="52" class="key"/>
<text x="0" y="0" class="key tap">DOWN</text>
<text x="0" y="24" class="key hold"><tspan style="font-size: 78%">Ctl+ DOWN</tspan></text>
</g>
<g transform="translate(140, 140)" class="key keypos-9">
<rect rx="6" ry="6" x="-26" y="-26" width="52" height="52" class="key"/>
<text x="0" y="0" class="key tap">RIGHT</text>
<text x="0" y="24" class="key hold"><tspan style="font-size: 70%">Ctl+ RIGHT</tspan></text>
</g>
<g transform="translate(196, 140)" class="key trans keypos-10">
<rect rx="6" ry="6" x="-26" y="-26" width="52" height="52" class="key trans"/>
<text x="0" y="0" class="key trans tap">▽</text>
</g>
<g class="combo combopos-0">
<path d="M84,84 l-37,0" class="combo"/>
<path d="M84,84 l37,0" class="combo"/>
<rect rx="6" ry="6" x="70" y="71" width="28" height="26" class="combo"/>
<text x="84" y="84" class="combo tap"><tspan style="font-size: 64%">&amp;bootloader</tspan></text>
</g>
<g class="combo combopos-1">
<rect rx="6" ry="6" x="42" y="15" width="28" height="26" class="combo"/>
<text x="56" y="28" class="combo tap">fn</text>
<text x="56" y="39" class="combo hold">toggle</text>
</g>
<g class="combo combopos-2">
<rect rx="6" ry="6" x="98" y="15" width="28" height="26" class="combo"/>
<text x="112" y="28" class="combo tap">aggnews</text>
<text x="112" y="39" class="combo hold">toggle</text>
</g>
<g class="combo combopos-3">
<path d="M84,140 l-37,0" class="combo"/>
<path d="M84,140 l37,0" class="combo"/>
<rect rx="6" ry="6" x="70" y="127" width="28" height="26" class="combo"/>
<text x="84" y="140" class="combo tap">NUM</text>
<text x="84" y="151" class="combo hold">toggle</text>
</g>
<g class="combo combopos-4">
<rect rx="6" ry="6" x="126" y="43" width="28" height="26" class="combo"/>
<text x="140" y="56" class="combo tap">SLL</text>
<text x="140" y="67" class="combo hold">toggle</text>
</g>
</g>
</g>
<g transform="translate(30, 672)" class="layer-SLL">
<text x="0" y="28" class="label">SLL:</text>
<g transform="translate(0, 56)">
<g transform="translate(28, 28)" class="key keypos-0">
<rect rx="6" ry="6" x="-26" y="-26" width="52" height="52" class="key"/>
</g>
<g transform="translate(84, 28)" class="key trans keypos-1">
<rect rx="6" ry="6" x="-26" y="-26" width="52" height="52" class="key trans"/>
<text x="0" y="0" class="key trans tap">▽</text>
</g>
<g transform="translate(140, 28)" class="key keypos-2">
<rect rx="6" ry="6" x="-26" y="-26" width="52" height="52" class="key"/>
</g>
<g transform="translate(196, 28)" class="key trans keypos-3">
<rect rx="6" ry="6" x="-26" y="-26" width="52" height="52" class="key trans"/>
<text x="0" y="0" class="key trans tap">▽</text>
</g>
<g transform="translate(28, 84)" class="key held keypos-4">
<rect rx="6" ry="6" x="-26" y="-26" width="52" height="52" class="key held"/>
<text x="0" y="0" class="key held tap">PSCRN</text>
</g>
<g transform="translate(84, 84)" class="key keypos-5">
<rect rx="6" ry="6" x="-26" y="-26" width="52" height="52" class="key"/>
<text x="0" y="0" class="key tap">LGUI</text>
</g>
<g transform="translate(140, 84)" class="key keypos-6">
<rect rx="6" ry="6" x="-26" y="-26" width="52" height="52" class="key"/>
<text x="0" y="0" class="key tap">
<tspan x="0" dy="-0.6em">Ctl+</tspan><tspan x="0" dy="1.2em">Z</tspan>
</text>
</g>
<g transform="translate(28, 140)" class="key keypos-7">
<rect rx="6" ry="6" x="-26" y="-26" width="52" height="52" class="key"/>
<text x="0" y="0" class="key tap">
<tspan x="0" dy="-0.6em">Ctl+</tspan><tspan x="0" dy="1.2em">X</tspan>
</text>
</g>
<g transform="translate(84, 140)" class="key keypos-8">
<rect rx="6" ry="6" x="-26" y="-26" width="52" height="52" class="key"/>
<text x="0" y="0" class="key tap">
<tspan x="0" dy="-0.6em">Ctl+</tspan><tspan x="0" dy="1.2em">C</tspan>
</text>
</g>
<g transform="translate(140, 140)" class="key keypos-9">
<rect rx="6" ry="6" x="-26" y="-26" width="52" height="52" class="key"/>
<text x="0" y="0" class="key tap">
<tspan x="0" dy="-0.6em">Ctl+</tspan><tspan x="0" dy="1.2em">V</tspan>
</text>
</g>
<g transform="translate(196, 140)" class="key trans keypos-10">
<rect rx="6" ry="6" x="-26" y="-26" width="52" height="52" class="key trans"/>
<text x="0" y="0" class="key trans tap">▽</text>
</g>
<g class="combo combopos-0">
<path d="M84,84 l-37,0" class="combo"/>
<path d="M84,84 l37,0" class="combo"/>
<rect rx="6" ry="6" x="70" y="71" width="28" height="26" class="combo"/>
<text x="84" y="84" class="combo tap"><tspan style="font-size: 64%">&amp;bootloader</tspan></text>
</g>
<g class="combo combopos-1">
<rect rx="6" ry="6" x="42" y="15" width="28" height="26" class="combo"/>
<text x="56" y="28" class="combo tap">fn</text>
<text x="56" y="39" class="combo hold">toggle</text>
</g>
<g class="combo combopos-2">
<rect rx="6" ry="6" x="98" y="15" width="28" height="26" class="combo"/>
<text x="112" y="28" class="combo tap">aggnews</text>
<text x="112" y="39" class="combo hold">toggle</text>
</g>
<g class="combo combopos-3">
<path d="M84,140 l-37,0" class="combo"/>
<path d="M84,140 l37,0" class="combo"/>
<rect rx="6" ry="6" x="70" y="127" width="28" height="26" class="combo"/>
<text x="84" y="140" class="combo tap">NUM</text>
<text x="84" y="151" class="combo hold">toggle</text>
</g>
<g class="combo combopos-4">
<rect rx="6" ry="6" x="126" y="43" width="28" height="26" class="combo"/>
<text x="140" y="56" class="combo tap">SLL</text>
<text x="140" y="67" class="combo hold">toggle</text>
</g>
</g>
</g>
<g transform="translate(30, 896)" class="layer-NUM">
<text x="0" y="28" class="label">NUM:</text>
<g transform="translate(0, 56)">
<g transform="translate(28, 28)" class="key keypos-0">
<rect rx="6" ry="6" x="-26" y="-26" width="52" height="52" class="key"/>
<text x="0" y="0" class="key tap">7</text>
<text x="0" y="24" class="key hold">!</text>
</g>
<g transform="translate(84, 28)" class="key keypos-1">
<rect rx="6" ry="6" x="-26" y="-26" width="52" height="52" class="key"/>
<text x="0" y="0" class="key tap">8</text>
<text x="0" y="24" class="key hold">@</text>
</g>
<g transform="translate(140, 28)" class="key keypos-2">
<rect rx="6" ry="6" x="-26" y="-26" width="52" height="52" class="key"/>
<text x="0" y="0" class="key tap">9</text>
<text x="0" y="24" class="key hold">#</text>
</g>
<g transform="translate(196, 28)" class="key trans keypos-3">
<rect rx="6" ry="6" x="-26" y="-26" width="52" height="52" class="key trans"/>
<text x="0" y="0" class="key trans tap">▽</text>
</g>
<g transform="translate(28, 84)" class="key keypos-4">
<rect rx="6" ry="6" x="-26" y="-26" width="52" height="52" class="key"/>
<text x="0" y="0" class="key tap">4</text>
<text x="0" y="24" class="key hold">A</text>
</g>
<g transform="translate(84, 84)" class="key keypos-5">
<rect rx="6" ry="6" x="-26" y="-26" width="52" height="52" class="key"/>
<text x="0" y="0" class="key tap">5</text>
<text x="0" y="24" class="key hold">B</text>
</g>
<g transform="translate(140, 84)" class="key keypos-6">
<rect rx="6" ry="6" x="-26" y="-26" width="52" height="52" class="key"/>
<text x="0" y="0" class="key tap">6</text>
<text x="0" y="24" class="key hold">C</text>
</g>
<g transform="translate(28, 140)" class="key keypos-7">
<rect rx="6" ry="6" x="-26" y="-26" width="52" height="52" class="key"/>
<text x="0" y="0" class="key tap">1</text>
<text x="0" y="24" class="key hold">M</text>
</g>
<g transform="translate(84, 140)" class="key keypos-8">
<rect rx="6" ry="6" x="-26" y="-26" width="52" height="52" class="key"/>
<text x="0" y="0" class="key tap">2</text>
<text x="0" y="24" class="key hold">0</text>
</g>
<g transform="translate(140, 140)" class="key keypos-9">
<rect rx="6" ry="6" x="-26" y="-26" width="52" height="52" class="key"/>
<text x="0" y="0" class="key tap">3</text>
<text x="0" y="24" class="key hold">P</text>
</g>
<g transform="translate(196, 140)" class="key trans keypos-10">
<rect rx="6" ry="6" x="-26" y="-26" width="52" height="52" class="key trans"/>
<text x="0" y="0" class="key trans tap">▽</text>
</g>
<g class="combo combopos-0">
<path d="M84,84 l-37,0" class="combo"/>
<path d="M84,84 l37,0" class="combo"/>
<rect rx="6" ry="6" x="70" y="71" width="28" height="26" class="combo"/>
<text x="84" y="84" class="combo tap"><tspan style="font-size: 64%">&amp;bootloader</tspan></text>
</g>
<g class="combo combopos-1">
<rect rx="6" ry="6" x="42" y="15" width="28" height="26" class="combo"/>
<text x="56" y="28" class="combo tap">fn</text>
<text x="56" y="39" class="combo hold">toggle</text>
</g>
<g class="combo combopos-2">
<rect rx="6" ry="6" x="98" y="15" width="28" height="26" class="combo"/>
<text x="112" y="28" class="combo tap">aggnews</text>
<text x="112" y="39" class="combo hold">toggle</text>
</g>
<g class="combo combopos-3">
<path d="M84,140 l-37,0" class="combo"/>
<path d="M84,140 l37,0" class="combo"/>
<rect rx="6" ry="6" x="70" y="127" width="28" height="26" class="combo"/>
<text x="84" y="140" class="combo tap">NUM</text>
<text x="84" y="151" class="combo hold">toggle</text>
</g>
<g class="combo combopos-4">
<rect rx="6" ry="6" x="126" y="43" width="28" height="26" class="combo"/>
<text x="140" y="56" class="combo tap">SLL</text>
<text x="140" y="67" class="combo hold">toggle</text>
</g>
</g>
</g>
<g transform="translate(30, 1120)" class="layer-SLL5">
<text x="0" y="28" class="label">SLL5:</text>
<g transform="translate(0, 56)">
<g transform="translate(28, 28)" class="key keypos-0">
<rect rx="6" ry="6" x="-26" y="-26" width="52" height="52" class="key"/>
<text x="0" y="0" class="key tap">ESC</text>
<text x="0" y="24" class="key hold">ENTER</text>
</g>
<g transform="translate(84, 28)" class="key keypos-1">
<rect rx="6" ry="6" x="-26" y="-26" width="52" height="52" class="key"/>
<text x="0" y="0" class="key tap">
<tspan x="0" dy="-1.2em">Ctl+</tspan><tspan x="0" dy="1.2em">-</tspan>
</text>
<text x="0" y="24" class="key hold">Ctl+ +</text>
</g>
<g transform="translate(140, 28)" class="key held keypos-2">
<rect rx="6" ry="6" x="-26" y="-26" width="52" height="52" class="key held"/>
<text x="0" y="0" class="key held tap">F4</text>
</g>
<g transform="translate(196, 28)" class="key trans keypos-3">
<rect rx="6" ry="6" x="-26" y="-26" width="52" height="52" class="key trans"/>
<text x="0" y="0" class="key trans tap">▽</text>
</g>
<g transform="translate(28, 84)" class="key keypos-4">
<rect rx="6" ry="6" x="-26" y="-26" width="52" height="52" class="key"/>
<text x="0" y="0" class="key tap">LGUI</text>
</g>
<g transform="translate(84, 84)" class="key keypos-5">
<rect rx="6" ry="6" x="-26" y="-26" width="52" height="52" class="key"/>
<text x="0" y="0" class="key tap">Q</text>
</g>
<g transform="translate(140, 84)" class="key keypos-6">
<rect rx="6" ry="6" x="-26" y="-26" width="52" height="52" class="key"/>
<text x="0" y="0" class="key tap">DEL</text>
</g>
<g transform="translate(28, 140)" class="key keypos-7">
<rect rx="6" ry="6" x="-26" y="-26" width="52" height="52" class="key"/>
<text x="0" y="0" class="key tap">LCTRL</text>
</g>
<g transform="translate(84, 140)" class="key keypos-8">
<rect rx="6" ry="6" x="-26" y="-26" width="52" height="52" class="key"/>
<text x="0" y="0" class="key tap">LALT</text>
</g>
<g transform="translate(140, 140)" class="key keypos-9">
<rect rx="6" ry="6" x="-26" y="-26" width="52" height="52" class="key"/>
<text x="0" y="0" class="key tap">TAB</text>
</g>
<g transform="translate(196, 140)" class="key trans keypos-10">
<rect rx="6" ry="6" x="-26" y="-26" width="52" height="52" class="key trans"/>
<text x="0" y="0" class="key trans tap">▽</text>
</g>
<g class="combo combopos-0">
<path d="M84,84 l-37,0" class="combo"/>
<path d="M84,84 l37,0" class="combo"/>
<rect rx="6" ry="6" x="70" y="71" width="28" height="26" class="combo"/>
<text x="84" y="84" class="combo tap"><tspan style="font-size: 64%">&amp;bootloader</tspan></text>
</g>
<g class="combo combopos-1">
<rect rx="6" ry="6" x="42" y="15" width="28" height="26" class="combo"/>
<text x="56" y="28" class="combo tap">fn</text>
<text x="56" y="39" class="combo hold">toggle</text>
</g>
<g class="combo combopos-2">
<rect rx="6" ry="6" x="98" y="15" width="28" height="26" class="combo"/>
<text x="112" y="28" class="combo tap">aggnews</text>
<text x="112" y="39" class="combo hold">toggle</text>
</g>
<g class="combo combopos-3">
<path d="M84,140 l-37,0" class="combo"/>
<path d="M84,140 l37,0" class="combo"/>
<rect rx="6" ry="6" x="70" y="127" width="28" height="26" class="combo"/>
<text x="84" y="140" class="combo tap">NUM</text>
<text x="84" y="151" class="combo hold">toggle</text>
</g>
<g class="combo combopos-4">
<rect rx="6" ry="6" x="126" y="43" width="28" height="26" class="combo"/>
<text x="140" y="56" class="combo tap">SLL</text>
<text x="140" y="67" class="combo hold">toggle</text>
</g>
</g>
</g>
</svg>
